<svg xmlns="http://www.w3.org/2000/svg" viewBox="1 51.337 607.812 689.326"><title>NHL Shield Logo</title><path d="M33.54 468.734c0-62.666 29.32-86.508 35.442-145.63-8.216 52.034-42.69 94.563-42.69 145.79 0 19.655 2.74 37.697 7.732 53.807 21.748 72.01 86.025 112.123 148.37 127.91C86.218 626.285 33.54 545.577 33.54 468.734zm549.496 0c0-32.702-9.02-58.316-18.687-82.158-11.76-28.353-24.488-53.967-24.488-85.38 0 76.198 36.407 97.785 36.407 167.54 0 76.84-52.68 157.39-148.692 181.875 86.67-22.07 155.458-85.38 155.458-181.876zM548.24 650.288c-13.05 0-23.52 10.632-23.52 23.52 0 13.05 10.47 23.52 23.52 23.52 13.05 0 23.52-10.632 23.52-23.52 0-12.887-10.633-23.52-23.52-23.52zm0 41.885c-10.15 0-18.526-8.216-18.526-18.526 0-10.15 8.216-18.526 18.526-18.526s18.526 8.217 18.526 18.527c-.16 10.47-8.377 18.526-18.526 18.526zm9.666-23.842c0-4.35-3.544-7.893-7.894-7.893h-11.277v26.742h5.155v-10.794h3.544l5.155 10.793h5.637L552.91 675.9c2.74-1.127 4.996-4.027 4.996-7.57zm-8.055 3.062h-6.282v-5.8h6.283c1.612 0 2.9 1.29 2.9 2.9 0 1.61-1.288 2.9-2.9 2.9z" fill="#FFF"/><path d="M551.3 165.07c-19.653-5.8-33.83-20.62-42.528-44.14l-19.976-54.61-9.183 34.473c18.848 84.736 88.602 90.858 88.602 90.858l28.353-13.21-45.267-13.37zM222.507 473.567l-36.407-55.9-40.597 30.447s14.176.322 14.176 15.304v105.195l28.513-21.426V472.76l32.702 49.78 30.286-22.715v-131.13l-28.513 21.425v83.447h-.16zM338.333 351.78l-32.22 24.163v-48.49l-43.656 32.702s14.176.322 14.176 15.304v105.194l29.32-22.07v-48.006l32.218-24.164v48.006l27.87-21.103v-131.13l-27.87 21.102v48.49h.163zm81.675-12.244v-97.624l-43.657 32.702s14.177.322 14.177 15.304v105.195l81.03-60.894c-1.77-20.943 0-33.348 0-33.348l-51.55 38.664z" fill="#E4E5E6"/><linearGradient id="a" gradientUnits="userSpaceOnUse" x1="12620.67" y1="11642.984" x2="12637.159" y2="11642.984" gradientTransform="matrix(4.433 0 0 4.433 -55944.156 -51260.152)"><stop offset=".11" stop-color="#FFF"/><stop offset=".24" stop-color="#DCDFE1"/><stop offset=".44" stop-color="#A8AFB3"/><stop offset=".54" stop-color="#949CA1"/></linearGradient><path d="M49.65 301.518c0 74.426-36.406 89.247-36.406 167.378 0 23.842 4.027 46.234 11.277 66.693 2.256-4.673 5.64-9.345 9.506-12.728-4.994-16.27-7.57-34.152-7.57-53.806 0-51.067 34.473-93.757 42.69-145.63.643-6.766 1.127-13.854 1.127-21.748 0-59.444-28.353-109.706-28.353-109.706l-28.353-13.37 19.33 43.656c9.344 21.75 16.754 48.652 16.754 79.26z" fill="url(#a)"/><linearGradient id="b" gradientUnits="userSpaceOnUse" x1="198.467" y1="769.455" x2="198.467" y2="756.525" gradientTransform="matrix(16.11 0 0 16.11 -2628.902 -12008.96)"><stop offset="0" stop-color="#FFF"/><stop offset=".35" stop-color="#FFF"/><stop offset=".56" stop-color="#949CA1"/><stop offset="1" stop-color="#949CA1"/></linearGradient><path d="M539.863 301.196c0 31.575 12.726 57.19 24.487 85.38l15.304-.483c-9.505-23.52-19.17-46.073-19.17-84.736 0-30.447 7.41-57.51 16.915-79.42l19.33-43.657-28.353 13.21c-.16.16-28.514 50.262-28.514 109.706z" fill="url(#b)"/><linearGradient id="c" gradientUnits="userSpaceOnUse" x1="164.702" y1="784.255" x2="182.132" y2="784.255" gradientTransform="matrix(16.11 0 0 16.11 -2628.902 -12008.96)"><stop offset=".15" stop-color="#FFF"/><stop offset=".21" stop-color="#FAFAFA"/><stop offset=".29" stop-color="#EBECED"/><stop offset=".37" stop-color="#D2D5D7"/><stop offset=".45" stop-color="#AFB5B9"/><stop offset=".51" stop-color="#949CA1"/></linearGradient><path d="M282.594 673.325c-23.198-8.377-54.61-11.277-100.362-22.875-62.344-15.788-126.782-55.9-148.368-127.91-3.866 3.544-7.088 8.055-9.505 12.727 24.647 69.432 86.185 118.244 152.878 135.32 42.69 10.793 62.505 11.92 94.402 20.78 4.188 4.35 33.508 36.086 33.508 36.086v-30.447c-.162 0-19.493-20.78-22.554-23.68z" fill="url(#c)"/><linearGradient id="d" gradientUnits="userSpaceOnUse" x1="192.458" y1="783.386" x2="171.815" y2="753.915" gradientTransform="matrix(16.11 0 0 16.11 -2628.902 -12008.96)"><stop offset="0" stop-color="#949CA1"/><stop offset=".01" stop-color="#99A1A6"/><stop offset=".12" stop-color="#C2C6C8"/><stop offset=".2" stop-color="#DBDDDE"/><stop offset=".25" stop-color="#E4E5E6"/><stop offset=".75" stop-color="#E4E5E6"/><stop offset=".8" stop-color="#DCDEDF"/><stop offset=".87" stop-color="#C7CACD"/><stop offset=".97" stop-color="#A3AAAE"/><stop offset="1" stop-color="#949CA1"/></linearGradient><path d="M187.387 630.474c50.906 12.888 84.092 14.337 106.323 25.13 0 0 8.216 7.41 11.277 10.794 3.06-3.383 11.277-10.793 11.277-10.793 22.392-10.632 55.578-12.243 106.323-25.13 64.116-16.272 133.387-72.816 133.387-161.58 0-63.47-36.407-86.83-36.407-167.538 0-54.45 20.46-96.174 20.46-96.174s-47.363-9.505-69.433-69.593c0 0-31.413 29.48-74.91 29.48-54.45 0-90.534-38.18-90.534-38.18s-36.246 38.18-90.535 38.18c-43.335 0-74.748-29.48-74.748-29.48-22.07 60.088-69.432 69.593-69.432 69.593s20.46 41.885 20.46 96.335c0 80.71-36.408 104.067-36.408 167.54-.487 88.6 68.784 144.984 132.9 161.416zm345.066-161.74c0 75.392-60.088 124.85-115.827 139.025-40.274 10.148-89.408 15.625-104.23 24.002-3.382 2.416-7.41 6.927-7.41 6.927s-4.026-4.35-7.57-6.767c-14.983-8.377-64.117-13.693-104.23-24.003-1.45-.322-3.06-.805-4.51-1.29L505.39 368.856c10.63 37.697 27.063 62.344 27.063 99.88zM509.9 217.748c-6.445 19.33-13.855 49.134-13.855 83.447 0 14.337.967 27.064 2.74 38.502l-339.75 255.175c-42.53-21.91-79.743-63.794-81.676-121.466l390.493-293.193c13.694 18.687 29.16 30.447 42.046 37.535zm-396.133 83.448c0-34.474-7.57-64.277-13.854-83.447 14.982-8.217 33.83-22.715 48.65-47.846 16.11 9.02 38.825 18.043 65.728 18.043 40.758 0 72.494-17.72 90.698-31.09 18.043 13.37 49.778 31.09 90.535 31.09 6.444 0 12.726-.483 18.687-1.45L81.548 436.354c9.504-37.535 32.22-68.787 32.22-135.158z" fill="url(#d)"/><linearGradient id="e" gradientUnits="userSpaceOnUse" x1="170.702" y1="751.99" x2="182.132" y2="751.99" gradientTransform="matrix(16.11 0 0 16.11 -2628.902 -12008.96)"><stop offset=".25" stop-color="#FFF"/><stop offset=".34" stop-color="#FAFAFA"/><stop offset=".45" stop-color="#EBECED"/><stop offset=".57" stop-color="#D2D5D7"/><stop offset=".7" stop-color="#AFB5B9"/><stop offset=".79" stop-color="#949CA1"/></linearGradient><path d="M214.45 143.967c54.773 0 90.698-46.395 90.698-46.395V68.574l-28.514 28.353c-14.66 14.5-38.18 26.42-62.022 26.42-17.72 0-34.474-7.894-48.973-19.976l-44.624-36.89 9.344 34.474c-.162 0 41.723 43.013 84.09 43.013z" fill="url(#e)"/><linearGradient id="f" gradientUnits="userSpaceOnUse" x1="182.122" y1="780.035" x2="200.242" y2="780.035" gradientTransform="matrix(16.11 0 0 16.11 -2628.902 -12008.96)"><stop offset=".2" stop-color="#FFF"/><stop offset=".33" stop-color="#FAFBFB"/><stop offset=".47" stop-color="#EDEEEF"/><stop offset=".63" stop-color="#D7DADC"/><stop offset=".79" stop-color="#B8BDC1"/><stop offset=".93" stop-color="#949CA1"/></linearGradient><path d="M583.036 468.734c0 96.335-68.788 159.806-155.457 181.876-45.59 11.6-77.165 14.5-100.363 22.875-2.9 2.74-22.23 23.68-22.23 23.68v30.448s29.318-31.736 33.507-36.085c31.736-8.86 51.712-9.988 94.24-20.62 86.187-22.23 164.157-97.3 164.157-201.852 0-37.535-8.376-60.572-17.236-82.642l-15.143.483c9.505 23.52 18.526 49.135 18.526 81.837z" fill="url(#f)"/><linearGradient id="g" gradientUnits="userSpaceOnUse" x1="182.122" y1="751.99" x2="193.532" y2="751.99" gradientTransform="matrix(16.11 0 0 16.11 -2628.902 -12008.96)"><stop offset=".25" stop-color="#FFF"/><stop offset=".34" stop-color="#FAFAFA"/><stop offset=".45" stop-color="#EBECED"/><stop offset=".57" stop-color="#D2D5D7"/><stop offset=".7" stop-color="#AFB5B9"/><stop offset=".79" stop-color="#949CA1"/></linearGradient><path d="M395.522 143.967c42.368 0 84.092-43.012 84.092-43.012l9.183-34.474-44.3 36.73c-14.5 12.083-31.253 19.977-48.974 19.977-23.68 0-47.362-11.92-62.022-26.42l-28.513-28.353V97.41c0 .16 35.924 46.557 90.535 46.557z" fill="url(#g)"/><linearGradient id="h" gradientUnits="userSpaceOnUse" x1="164.022" y1="753.475" x2="171.272" y2="753.475" gradientTransform="matrix(16.11 0 0 16.11 -2628.902 -12008.96)"><stop offset=".39" stop-color="#FFF"/><stop offset=".47" stop-color="#FAFAFA"/><stop offset=".57" stop-color="#EBECED"/><stop offset=".67" stop-color="#D2D5D7"/><stop offset=".79" stop-color="#AFB5B9"/><stop offset=".87" stop-color="#949CA1"/></linearGradient><path d="M130.198 100.954l-9.344-34.474-19.976 54.61c-8.538 23.52-22.875 38.342-42.53 44.14l-45.106 13.372 28.353 13.21c0-.16 69.755-6.283 88.603-90.858z" fill="url(#h)"/><path d="M81.548 436.354l332.66-249.697c-5.96.967-12.242 1.61-18.686 1.61-40.596 0-72.332-17.72-90.535-31.09-18.204 13.37-49.778 31.09-90.535 31.09-26.742 0-49.617-9.02-65.727-18.042-14.982 24.97-33.83 39.468-48.65 47.845 6.443 19.33 13.853 49.134 13.853 83.447-.16 66.05-22.876 97.302-32.38 134.837zm106.967 170.278c1.61.322 3.06.967 4.51 1.29 40.275 10.148 89.57 15.625 104.39 24.002 3.384 2.416 7.572 6.927 7.572 6.927s4.027-4.35 7.41-6.765c14.982-8.377 64.116-13.693 104.39-24.003 55.738-14.176 115.826-63.794 115.826-139.025 0-37.535-16.432-62.183-27.225-99.88L188.515 606.633zM40.468 301.518c0 71.526-36.407 87.797-36.407 167.378 0 114.54 88.603 189.448 170.923 210.55 41.563 10.15 54.128 10.794 91.663 19.977 3.06 3.383 38.34 41.24 38.34 41.24s35.12-38.018 38.18-41.24c37.696-9.344 50.1-9.988 91.663-19.976 82.32-21.103 170.92-96.174 170.92-210.55 0-79.582-36.406-95.69-36.406-167.38 0-25.935 5.477-51.388 16.11-75.875l23.358-52.84-54.933-16.108c-16.755-4.994-28.998-18.043-36.73-38.663L492.983 51.34l-54.128 44.946c-14.337 11.92-28.997 18.043-43.173 18.043-19.17 0-41.08-9.344-55.578-23.842l-35.12-34.474-34.957 34.636c-14.66 14.337-36.407 23.842-55.578 23.842-14.337 0-28.997-5.96-43.173-18.043l-54.45-45.107L92.66 117.87c-7.57 20.62-19.976 33.67-36.57 38.663L1 172.643l23.36 52.838c10.63 24.648 16.108 50.1 16.108 76.038zM58.51 165.07c19.655-5.8 33.992-20.62 42.53-44.14l19.976-54.61 44.3 36.73c14.66 12.08 31.253 19.975 48.974 19.975 23.842 0 47.362-11.92 62.022-26.42l28.514-28.353 28.514 28.353c14.66 14.5 38.18 26.42 62.022 26.42 17.72 0 34.474-7.894 48.973-19.976l44.3-36.73 19.977 54.61c8.538 23.52 22.875 38.34 42.53 44.14l45.106 13.37-19.17 43.658c-9.666 21.91-16.915 48.973-16.915 79.42 0 38.502 9.827 61.055 19.33 84.736 8.86 22.07 17.238 44.945 17.238 82.642 0 104.712-77.808 179.782-163.994 202.013-42.53 10.792-62.505 11.92-94.24 20.78-4.19 4.35-33.51 36.085-33.51 36.085S275.67 696.04 271.48 691.69c-31.737-8.86-51.55-9.988-94.403-20.62-66.37-17.4-127.91-66.05-152.557-135.48-7.25-20.46-11.277-42.852-11.277-66.694 0-78.13 36.407-92.952 36.407-167.378 0-30.447-7.25-57.51-16.915-79.42l-19.17-43.496L58.51 165.07zm100.524 429.802l339.75-255.175c-1.773-11.438-2.74-24.164-2.74-38.502 0-34.474 7.572-64.277 13.854-83.447-12.888-6.927-28.353-18.687-42.046-37.535L77.36 473.406c1.932 57.672 39.145 99.557 81.674 121.466zm260.974-352.96v97.625l51.712-38.824s-1.772 12.565 0 33.347l-81.03 60.894V289.758c0-14.982-14.177-15.304-14.177-15.304l43.495-32.54zm-113.894 85.542v48.49l32.22-24.164v-48.49l27.868-21.103v131.13l-27.87 21.104v-48.005l-32.218 24.164v48.005l-29.32 22.07V375.46c0-14.82-14.175-15.304-14.175-15.304l43.494-32.702zm-120.177 90.213l36.407 55.9V390.28l28.514-21.425v131.13L220.572 522.7l-32.702-49.778v74.426l-28.514 21.426V463.58c0-14.983-14.176-15.305-14.176-15.305l40.757-30.608zM68.982 322.943c-5.96 59.444-35.44 83.125-35.44 145.79 0 76.843 52.677 157.39 148.85 181.877 45.59 11.6 77.327 14.5 100.524 22.875 2.9 2.74 22.392 23.68 22.392 23.68s19.33-20.94 22.392-23.68c23.198-8.377 54.772-11.277 100.362-22.875 96.174-24.325 148.852-104.873 148.852-181.715 0-69.754-36.407-91.34-36.407-167.54 0-59.443 28.514-109.705 28.514-109.705s-69.753-6.122-88.6-90.696c0 0-41.886 43.173-84.093 43.173-54.61 0-90.535-46.395-90.535-46.395s-35.924 46.395-90.535 46.395c-42.368 0-84.092-43.012-84.092-43.012-18.848 84.736-88.602 90.858-88.602 90.858s28.514 50.262 28.514 109.706c-1.128 7.248-1.45 14.66-2.095 21.263zm.967-117.92s47.36-9.506 69.43-69.594c0 0 31.576 29.48 74.75 29.48 54.45 0 90.696-38.18 90.696-38.18s36.085 38.18 90.535 38.18c43.497 0 74.91-29.48 74.91-29.48 22.07 60.087 69.432 69.592 69.432 69.592s-20.46 41.885-20.46 96.335c0 80.71 36.408 104.067 36.408 167.54 0 88.923-69.27 145.307-133.387 161.738-50.745 12.888-83.93 14.337-106.323 25.13 0 0-8.216 7.41-11.277 10.794-3.06-3.384-11.277-10.794-11.277-10.794-22.23-10.632-55.578-12.243-106.323-25.13-64.114-16.272-133.385-72.816-133.385-161.58 0-63.47 36.407-86.83 36.407-167.538.484-54.61-20.136-96.496-20.136-96.496z" fill="#111"/></svg>